SplineFontDB: 3.0
FontName: Sloan
FullName: Sloan
FamilyName: Sloan
Weight: Medium
Copyright: Copyright (c) 2014 by Andrew Howlett with FontForge 2.0 (http://fontforge.sf.net). Released under the SIL Open Font License  version 1.1
UComments: "This font conforms to the Report of Working Group 39 of the United States National Academy of Sciences - National Research Council +ACIA-Recommended Standard Procedures for the Clinical Measurement and Specification of Visual Acuity+ACIA Adv. Opthal., vol. 41, pp. 103-148. The report only defines glyphs SDKHNOCVRZ. The other glyphs are my invention." 
Version: Release 1.0
ItalicAngle: 0
UnderlinePosition: -108
UnderlineWidth: 72
Ascent: 778
Descent: 246
LayerCount: 2
Layer: 0 1 "Back"  1
Layer: 1 1 "Fore"  0
XUID: [1021 69 9421217 11208309]
FSType: 4
OS2Version: 0
OS2_WeightWidthSlopeOnly: 0
OS2_UseTypoMetrics: 1
CreationTime: 1241032827
ModificationTime: 1390735054
PfmFamily: 33
TTFWeight: 500
TTFWidth: 5
LineGap: 92
VLineGap: 0
OS2TypoAscent: 0
OS2TypoAOffset: 1
OS2TypoDescent: 0
OS2TypoDOffset: 1
OS2TypoLinegap: 92
OS2WinAscent: 0
OS2WinAOffset: 1
OS2WinDescent: 0
OS2WinDOffset: 1
HheadAscent: 0
HheadAOffset: 1
HheadDescent: 0
HheadDOffset: 1
OS2FamilyClass: 1030
OS2Vendor: 'PfEd'
MarkAttachClasses: 1
DEI: 91125
ShortTable: cvt  2
  34
  648
EndShort

StartChar: A
Encoding: 65 65 0
Width: 1228
VWidth: 1300
Flags: W
LayerCount: 2
Fore
SplineSet
512 768 m 1,0,-1
 369 410 l 1,1,-1
 655 410 l 1,2,-1
 512 768 l 1,0,-1
410 1024 m 1,3,-1
 614 1024 l 1,4,-1
 1024 0 l 1,5,-1
 819 0 l 1,6,-1
 737 205 l 1,7,-1
 287 205 l 1,8,-1
 205 0 l 1,9,-1
 0 0 l 1,10,-1
 410 1024 l 1,3,-1
EndSplineSet
Validated: 1
EndChar

StartChar: B
Encoding: 66 66 1
Width: 1228
VWidth: 1257
Flags: W
HStem: 0 205<0 205 410 598.319> 410 204<410 637.279> 819 205<0 205 410 642.877>
VStem: 205 205<205 410 614 819>
CounterMasks: 1 e0
LayerCount: 2
Fore
SplineSet
716 819 m 26,0,-1
 677 819 l 1,1,-1
 205 819 l 1,2,-1
 205 614 l 1,3,-1
 667 614 l 1,4,-1
 716 614 l 2,5,6
 737 614 737 614 755 622 c 0,7,8
 777 632 777 632 789 644 c 0,9,10
 804 661 804 661 811 677 c 0,11,12
 819 698 819 698 819 716 c 0,13,14
 819 736 819 736 811 755 c 0,15,16
 802 775 802 775 789 788 c 0,17,18
 771 806 771 806 755 810 c 2,19,20
 741 819 741 819 716 819 c 26,0,-1
0 819 m 1,21,-1
 0 1024 l 1,22,-1
 410 1024 l 1,23,-1
 671 1024 l 1,24,-1
 716 1024 l 2,25,26
 778 1024 778 1024 834 1000 c 0,27,28
 894 974 894 974 933 934 c 0,29,30
 977 890 977 890 1000 835 c 0,31,32
 1024 778 1024 778 1024 717 c 0,33,34
 1024 664 1024 664 1000 599 c 0,35,36
 983 553 983 553 946 513 c 1,37,-1
 946 512 l 1,38,39
 984 468 984 468 1000 425 c 0,40,41
 1024 360 1024 360 1024 307 c 0,42,43
 1024 248 1024 248 1000 189 c 0,44,45
 978 135 978 135 933 90 c 0,46,47
 894 49 894 49 834 24 c 0,48,49
 776 0 776 0 716 0 c 2,50,-1
 667 0 l 25,51,-1
 0 0 l 1,52,-1
 0 205 l 1,53,-1
 0 819 l 1,21,-1
716 410 m 26,55,-1
 677 410 l 1,56,-1
 205 410 l 1,57,-1
 205 205 l 1,58,-1
 667 205 l 1,59,-1
 716 205 l 2,60,61
 737 205 737 205 755 213 c 0,62,63
 777 223 777 223 789 235 c 0,64,65
 804 252 804 252 811 268 c 0,66,67
 819 289 819 289 819 307 c 0,68,69
 819 327 819 327 811 346 c 0,70,71
 802 366 802 366 789 379 c 0,72,73
 771 397 771 397 755 401 c 2,74,75
 741 410 741 410 716 410 c 26,55,-1
EndSplineSet
Validated: 1
EndChar

StartChar: C
Encoding: 67 67 2
Width: 1228
VWidth: 2097
Flags: W
LayerCount: 2
Fore
SplineSet
709 985 m 0,0,1
 739 972 739 972 771 952 c 0,2,3
 842 908 842 908 846 898 c 0,4,-1
 922 820 l 0,5,-1
 978 722 l 0,6,7
 996 668 996 668 1014 614 c 1,8,-1
 801 614 l 1,9,-1
 795 631 l 2,10,11
 778 680 778 680 729 729 c 0,12,13
 685 773 685 773 631 795 c 0,14,15
 572 819 572 819 512 819 c 0,16,17
 450 819 450 819 393 795 c 0,18,19
 339 773 339 773 295 729 c 128,-1,20
 251 685 251 685 229 631 c 0,21,22
 205 574 205 574 205 512 c 128,-1,23
 205 450 205 450 229 393 c 0,24,25
 251 339 251 339 295 295 c 128,-1,26
 339 251 339 251 393 229 c 0,27,28
 450 205 450 205 512 205 c 128,-1,29
 574 205 574 205 631 229 c 0,30,31
 685 251 685 251 729 295 c 0,32,33
 778 344 778 344 795 393 c 282,34,-1
 801 410 l 1,35,-1
 1014 410 l 1,36,-1
 985 315 l 0,37,38
 950 230 950 230 872 152 c 0,39,40
 795 75 795 75 709 39 c 0,41,42
 614 0 614 0 512 0 c 128,-1,43
 410 0 410 0 315 39 c 0,44,45
 225 76 225 76 151 151 c 0,46,47
 79 222 79 222 39 315 c 0,48,49
 0 406 0 406 0 512 c 0,50,51
 0 614 0 614 39 709 c 0,52,53
 76 799 76 799 151 873 c 128,-1,54
 226 947 226 947 315 985 c 0,55,56
 406 1024 406 1024 512 1024 c 0,57,58
 617 1024 617 1024 709 985 c 0,0,1
EndSplineSet
Validated: 1
EndChar

StartChar: D
Encoding: 68 68 3
Width: 1228
VWidth: 1257
Flags: W
LayerCount: 2
Fore
SplineSet
819 717 m 2,0,1
 819 738 819 738 811 756 c 0,2,3
 802 776 802 776 789 789 c 0,4,5
 774 804 774 804 755 811 c 0,6,7
 736 819 736 819 716 819 c 26,8,-1
 575 819 l 1,9,-1
 205 819 l 1,10,-1
 205 614 l 1,11,-1
 205 410 l 1,12,-1
 205 205 l 1,13,-1
 677 205 l 1,14,-1
 716 205 l 26,15,16
 736 205 736 205 755 213 c 0,17,18
 774 220 774 220 789 235 c 0,19,20
 804 252 804 252 811 268 c 0,21,22
 819 289 819 289 819 307 c 2,23,24
 819 717 l 2,0,1
1024 307 m 2,25,26
 1024 246 1024 246 1000 189 c 128,-1,27
 976 132 976 132 933 90 c 0,28,29
 890 46 890 46 834 24 c 0,30,31
 773 0 773 0 716 0 c 26,32,-1
 671 0 l 1,33,-1
 0 0 l 1,34,-1
 0 205 l 1,35,-1
 0 819 l 1,36,-1
 0 1024 l 1,37,-1
 569 1024 l 1,38,-1
 716 1024 l 26,39,40
 775 1024 775 1024 834 1000 c 0,41,42
 890 977 890 977 933 934 c 0,43,44
 976 892 976 892 1000 835 c 128,-1,45
 1024 778 1024 778 1024 717 c 2,46,-1
 1024 307 l 2,25,26
EndSplineSet
Validated: 1
EndChar

StartChar: E
Encoding: 69 69 4
Width: 1228
Flags: W
LayerCount: 2
Fore
SplineSet
0 1024 m 1,0,-1
 1024 1024 l 1,1,-1
 1024 819 l 1,2,-1
 205 819 l 1,3,-1
 205 614 l 1,4,-1
 614 614 l 1,5,-1
 614 410 l 1,6,-1
 205 410 l 1,7,-1
 205 205 l 1,8,-1
 1024 205 l 1,9,-1
 1024 0 l 1,10,-1
 0 0 l 1,11,-1
 0 1024 l 1,0,-1
EndSplineSet
Validated: 1
EndChar

StartChar: F
Encoding: 70 70 5
Width: 1228
Flags: W
LayerCount: 2
Fore
SplineSet
205 0 m 25,0,-1
 0 0 l 1,1,-1
 0 1024 l 1,2,-1
 1024 1024 l 1,3,-1
 1024 819 l 1,4,-1
 205 819 l 1,5,-1
 205 614 l 1,6,-1
 613 614 l 5,7,-1
 613 410 l 5,8,-1
 205 410 l 1,9,-1
 205 0 l 25,0,-1
EndSplineSet
Validated: 1
EndChar

StartChar: G
Encoding: 71 71 6
Width: 1228
VWidth: 2097
Flags: W
LayerCount: 2
Fore
SplineSet
512 0 m 0,0,1
 419 0 419 0 315 39 c 0,2,3
 232 70 232 70 151 151 c 0,4,5
 76 226 76 226 39 315 c 0,6,7
 0 409 0 409 0 512 c 128,-1,8
 0 615 0 615 39 709 c 0,9,10
 76 798 76 798 151 873 c 128,-1,11
 226 948 226 948 315 985 c 0,12,13
 409 1024 409 1024 512 1024 c 0,14,15
 616 1024 616 1024 709 985 c 0,16,17
 790 951 790 951 872 872 c 0,18,19
 913 834 913 834 975 730 c 258,20,-1
 978 725 l 1,21,-1
 732 725 l 25,22,-1
 729 729 l 2,23,24
 701 766 701 766 631 795 c 0,25,26
 573 819 573 819 512 819 c 0,27,28
 453 819 453 819 393 795 c 0,29,30
 340 774 340 774 295 729 c 0,31,32
 253 687 253 687 229 631 c 128,-1,33
 205 575 205 575 205 512 c 0,34,35
 205 453 205 453 229 393 c 0,36,37
 250 340 250 340 295 295 c 0,38,39
 337 253 337 253 393 229 c 128,-1,40
 449 205 449 205 512 205 c 0,41,42
 571 205 571 205 631 229 c 0,43,44
 692 253 692 253 729 295 c 258,45,-1
 763 333 l 1,46,-1
 614 332 l 1,47,-1
 614 513 l 1,48,-1
 1024 512 l 0,49,50
 1024 410 1024 410 985 316 c 0,51,52
 949 229 949 229 873 151 c 0,53,54
 800 76 800 76 708 39 c 0,55,56
 612 0 612 0 527 0 c 0,57,58
 520 0 520 0 512 0 c 0,0,1
EndSplineSet
Validated: 1
EndChar

StartChar: H
Encoding: 72 72 7
Width: 1228
VWidth: 1300
Flags: W
LayerCount: 2
Fore
SplineSet
0 1024 m 1,0,-1
 205 1024 l 1,1,-1
 205 614 l 1,2,-1
 819 614 l 1,3,-1
 819 1024 l 1,4,-1
 1024 1024 l 1,5,-1
 1024 0 l 1,6,-1
 819 0 l 1,7,-1
 819 410 l 1,8,-1
 205 410 l 1,9,-1
 205 0 l 1,10,-1
 0 0 l 1,11,-1
 0 1024 l 1,0,-1
EndSplineSet
Validated: 1
EndChar

StartChar: I
Encoding: 73 73 8
Width: 1228
Flags: W
LayerCount: 2
Fore
SplineSet
614 0 m 25,0,-1
 410 0 l 17,1,-1
 410 1024 l 1,2,-1
 614 1024 l 1,3,-1
 614 0 l 25,0,-1
EndSplineSet
Validated: 1
EndChar

StartChar: J
Encoding: 74 74 9
Width: 1228
VWidth: 2097
Flags: W
LayerCount: 2
Fore
SplineSet
1024 512 m 4,0,1
 1024 410 1024 410 985 316 c 128,-1,2
 946 222 946 222 873 151 c 0,3,4
 802 78 802 78 708 39 c 128,-1,5
 614 0 614 0 512 0 c 128,-1,6
 410 0 410 0 316 39 c 128,-1,7
 222 78 222 78 151 151 c 0,8,9
 78 222 78 222 39 316 c 128,-1,10
 0 410 0 410 0 512 c 0,11,-1
 205 512 l 0,12,13
 205 452 205 452 228 394 c 0,14,15
 252 338 252 338 295 295 c 128,-1,16
 338 252 338 252 394 228 c 0,17,18
 452 205 452 205 512 205 c 128,-1,19
 572 205 572 205 630 228 c 0,20,21
 686 252 686 252 729 295 c 128,-1,22
 772 338 772 338 796 394 c 0,23,24
 819 512 819 512 819 512 c 1,25,26
 819 1024 819 1024 819 1024 c 9,27,-1
 1024 1024 l 29,28,-1
 1024 512 l 4,0,1
EndSplineSet
Validated: 1
EndChar

StartChar: K
Encoding: 75 75 10
Width: 1228
VWidth: 1300
Flags: W
LayerCount: 2
Fore
SplineSet
0 1024 m 25,0,-1
 205 1024 l 1,1,-1
 205 657 l 1,2,-1
 692 1024 l 1,3,-1
 1024 1024 l 1,4,-1
 520 644 l 1,5,-1
 1024 0 l 1,6,-1
 770 0 l 1,7,-1
 360 524 l 1,8,-1
 205 407 l 5,9,-1
 205 0 l 1,10,-1
 0 0 l 1,11,-1
 0 1024 l 25,0,-1
EndSplineSet
Validated: 1
EndChar

StartChar: L
Encoding: 76 76 11
Width: 1228
Flags: W
LayerCount: 2
Fore
SplineSet
205 205 m 1,0,-1
 1024 205 l 1,1,-1
 1024 0 l 1,2,-1
 0 0 l 1,3,-1
 0 1024 l 1,4,-1
 205 1024 l 1,5,-1
 205 205 l 1,0,-1
EndSplineSet
Validated: 1
EndChar

StartChar: M
Encoding: 77 77 12
Width: 1228
Flags: W
LayerCount: 2
Fore
SplineSet
0 0 m 25,0,-1
0 0 m 25,1,-1
 0 1024 l 1,2,-1
 205 1024 l 1,3,-1
 512 614 l 1,4,-1
 819 1024 l 1,5,-1
 1024 1024 l 1,6,-1
 1024 0 l 1,7,-1
 819 0 l 1,8,-1
 819 666 l 1,9,-1
 614 410 l 1,10,-1
 410 410 l 1,11,-1
 205 666 l 1,12,-1
 205 0 l 1,13,-1
 0 0 l 25,1,-1
EndSplineSet
Validated: 1
EndChar

StartChar: N
Encoding: 78 78 13
Width: 1228
Flags: W
LayerCount: 2
Fore
SplineSet
204 0 m 5,0,-1
 0 0 l 1,1,-1
 0 1024 l 1,2,-1
 205 1024 l 1,3,-1
 819 313 l 1,4,-1
 819 819 l 1,5,-1
 819 1024 l 1,6,-1
 1024 1024 l 1,7,-1
 1024 0 l 1,8,-1
 819 0 l 1,9,-1
 205 711 l 1,10,-1
 205 205 l 5,11,-1
 204 0 l 5,0,-1
EndSplineSet
Validated: 1
EndChar

StartChar: O
Encoding: 79 79 14
Width: 1228
VWidth: 2097
Flags: W
LayerCount: 2
Fore
SplineSet
512 819 m 152,-1,1
 452 819 452 819 394 796 c 0,2,3
 338 772 338 772 295 729 c 128,-1,4
 252 686 252 686 228 630 c 0,5,6
 205 572 205 572 205 512 c 128,-1,7
 205 452 205 452 228 394 c 0,8,9
 252 338 252 338 295 295 c 128,-1,10
 338 252 338 252 394 228 c 0,11,12
 452 205 452 205 512 205 c 128,-1,13
 572 205 572 205 630 228 c 0,14,15
 686 252 686 252 729 295 c 0,16,17
 775 341 775 341 796 394 c 0,18,19
 819 452 819 452 819 512 c 0,20,21
 819 543 819 543 813 573 c 0,22,23
 807 602 807 602 796 630 c 0,24,25
 775 683 775 683 729 729 c 0,26,27
 686 772 686 772 630 796 c 0,28,0
 572 819 572 819 512 819 c 152,-1,1
512 1024 m 152,-1,30
 614 1024 614 1024 708 985 c 128,-1,31
 802 946 802 946 873 873 c 0,32,33
 946 802 946 802 985 708 c 128,-1,34
 1024 614 1024 614 1024 512 c 128,-1,35
 1024 410 1024 410 985 316 c 128,-1,36
 946 222 946 222 873 151 c 0,37,38
 802 78 802 78 708 39 c 128,-1,39
 614 0 614 0 512 0 c 128,-1,40
 410 0 410 0 316 39 c 128,-1,41
 222 78 222 78 151 151 c 0,42,43
 78 222 78 222 39 316 c 128,-1,44
 0 410 0 410 0 512 c 128,-1,45
 0 614 0 614 39 708 c 128,-1,46
 78 802 78 802 151 873 c 0,47,48
 222 946 222 946 316 985 c 128,-1,29
 410 1024 410 1024 512 1024 c 152,-1,30
EndSplineSet
Validated: 1
EndChar

StartChar: P
Encoding: 80 80 15
Width: 1228
VWidth: 1257
Flags: W
LayerCount: 2
Fore
SplineSet
614 819 m 26,0,-1
 575 819 l 1,1,-1
 205 819 l 1,2,-1
 205 614 l 1,3,-1
 565 614 l 1,4,-1
 614 614 l 2,5,6
 639 614 639 614 653 623 c 2,7,8
 671 627 671 627 687 645 c 128,-1,9
 703 663 703 663 709 678 c 0,10,11
 717 697 717 697 717 717 c 0,12,13
 717 738 717 738 709 756 c 0,14,15
 700 776 700 776 687 789 c 0,16,17
 672 804 672 804 653 811 c 0,18,19
 634 819 634 819 614 819 c 26,0,-1
0 1024 m 1,20,-1
 569 1024 l 1,21,-1
 614 1024 l 26,22,23
 673 1024 673 1024 732 1000 c 0,24,25
 788 977 788 977 831 934 c 0,26,27
 874 892 874 892 898 835 c 128,-1,28
 922 778 922 778 922 717 c 128,-1,29
 922 656 922 656 898 599 c 0,30,31
 876 546 876 546 831 500 c 0,32,33
 788 456 788 456 732 433 c 128,-1,35
 676 410 676 410 614 410 c 2,36,-1
 565 410 l 1,37,-1
 205 410 l 1,38,-1
 205 0 l 1,39,-1
 0 0 l 1,40,-1
 0 1024 l 1,20,-1
EndSplineSet
Validated: 1
EndChar

StartChar: Q
Encoding: 81 81 16
Width: 1228
VWidth: 2097
Flags: W
LayerCount: 2
Fore
SplineSet
1024 0 m 25,0,-1
 823 0 l 1,1,-1
 761 65 l 9,2,3
 628 0 628 0 512 0 c 0,4,5
 504 0 504 0 496 -0 c 0,6,7
 490 -0 490 -0 483 -0 c 0,8,9
 477 0 477 0 471 0 c 0,10,11
 405 0 405 0 315 39 c 0,12,13
 223 79 223 79 151 151 c 0,14,15
 76 226 76 226 39 316 c 0,16,17
 0 411 0 411 0 512 c 0,18,19
 0 615 0 615 39 708 c 0,20,21
 77 799 77 799 151 873 c 128,-1,22
 225 947 225 947 316 985 c 0,23,24
 409 1024 409 1024 512 1024 c 128,-1,25
 615 1024 615 1024 708 985 c 0,26,27
 799 947 799 947 873 873 c 128,-1,28
 947 799 947 799 985 708 c 0,29,30
 1024 615 1024 615 1024 512 c 0,31,32
 1024 426 1024 426 985 316 c 0,33,34
 963 255 963 255 911 196 c 1,35,-1
 1024 74 l 1,36,-1
 1024 0 l 25,0,-1
771 345 m 17,37,38
 787 367 787 367 796 394 c 0,39,40
 819 478 819 478 819 512 c 0,41,42
 819 572 819 572 796 630 c 0,43,44
 772 686 772 686 729 729 c 128,-1,45
 686 772 686 772 630 796 c 0,46,47
 572 819 572 819 512 819 c 128,-1,48
 452 819 452 819 394 796 c 0,49,50
 338 772 338 772 295 729 c 128,-1,51
 252 686 252 686 228 630 c 0,52,53
 205 572 205 572 205 512 c 128,-1,54
 205 452 205 452 228 394 c 0,55,56
 252 338 252 338 295 295 c 0,57,58
 341 249 341 249 394 228 c 0,59,60
 452 205 452 205 512 205 c 0,61,62
 515 205 515 205 517 205 c 0,63,64
 522 205 522 205 522 205 c 0,65,66
 524 204 524 204 526 204 c 0,67,68
 568 204 568 204 616 223 c 1,69,-1
 485 367 l 1,70,-1
 614 512 l 1,71,-1
 771 345 l 17,37,38
EndSplineSet
EndChar

StartChar: R
Encoding: 82 82 17
Width: 1228
VWidth: 1257
Flags: W
LayerCount: 2
Fore
SplineSet
205 0 m 1,0,-1
 0 0 l 1,1,-1
 0 205 l 1,2,-1
 0 1024 l 1,3,-1
 671 1024 l 1,4,-1
 716 1024 l 2,5,6
 778 1024 778 1024 834 1000 c 0,7,8
 894 974 894 974 933 934 c 0,9,10
 977 890 977 890 1000 835 c 0,11,12
 1024 778 1024 778 1024 717 c 0,13,14
 1024 661 1024 661 1000 599 c 0,15,16
 977 539 977 539 933 500 c 0,17,18
 899 470 899 470 812 424 c 1,19,-1
 1024 0 l 1,20,-1
 796 0 l 1,21,-1
 596 410 l 17,22,-1
 205 410 l 1,23,-1
 205 205 l 1,24,-1
 205 0 l 1,0,-1
716 819 m 26,25,-1
 677 819 l 1,26,-1
 205 819 l 1,27,-1
 205 614 l 1,28,-1
 667 614 l 1,29,-1
 716 614 l 2,30,31
 741 614 741 614 755 623 c 2,32,33
 773 627 773 627 789 645 c 128,-1,35
 805 663 805 663 811 678 c 0,36,37
 819 697 819 697 819 717 c 0,38,39
 819 738 819 738 811 756 c 0,40,41
 802 776 802 776 789 789 c 0,42,43
 774 804 774 804 755 811 c 0,44,45
 736 819 736 819 716 819 c 26,25,-1
EndSplineSet
Validated: 1
EndChar

StartChar: S
Encoding: 83 83 18
Width: 1228
VWidth: 1257
Flags: W
LayerCount: 2
Fore
SplineSet
719 0 m 18,0,1
 307 0 l 2,2,3
 246 0 246 0 189 24 c 256,4,5
 134 46 134 46 90 90 c 256,6,7
 46 134 46 134 24 189 c 0,8,9
 0 246 0 246 0 307 c 258,10,-1
 0 309 l 1,11,-1
 205 309 l 257,12,-1
 205 307 l 2,13,14
 205 289 205 289 213 268 c 0,15,16
 221 248 221 248 236 236 c 2,17,18
 248 221 248 221 268 213 c 0,19,20
 289 205 289 205 307 205 c 258,21,-1
 717 205 l 1,22,-1
 719 205 l 2,23,24
 737 205 737 205 758 213 c 0,25,26
 777 220 777 220 791 236 c 0,27,28
 806 249 806 249 813 268 c 0,29,30
 821 285 821 285 821 307 c 128,-1,31
 821 329 821 329 813 346 c 0,32,33
 806 364 806 364 791 379 c 0,34,35
 778 392 778 392 758 401 c 256,36,37
 738 410 738 410 719 410 c 258,38,-1
 308 410 l 1,39,-1
 307 410 l 2,40,41
 241 410 241 410 189 433 c 0,42,43
 129 461 129 461 90 500 c 0,44,45
 46 544 46 544 24 599 c 0,46,47
 0 656 0 656 0 717 c 128,-1,48
 0 778 0 778 24 835 c 256,49,50
 46 890 46 890 90 934 c 256,51,52
 134 978 134 978 189 1000 c 0,53,54
 246 1024 246 1024 307 1024 c 2,55,-1
 717 1024 l 2,56,57
 778 1024 778 1024 835 1000 c 256,58,59
 890 978 890 978 934 934 c 256,60,61
 978 890 978 890 1000 835 c 0,62,63
 1024 778 1024 778 1024 717 c 258,64,-1
 1024 715 l 1,65,-1
 819 715 l 257,66,-1
 819 717 l 2,67,68
 819 735 819 735 811 756 c 0,69,70
 803 776 803 776 788 788 c 2,71,72
 776 803 776 803 756 811 c 0,73,74
 735 819 735 819 717 819 c 258,75,-1
 307 819 l 2,76,77
 289 819 289 819 268 811 c 0,78,79
 250 804 250 804 235 789 c 128,-1,80
 220 774 220 774 213 756 c 0,81,82
 205 735 205 735 205 717 c 128,-1,83
 205 699 205 699 213 678 c 0,84,85
 220 659 220 659 236 645 c 0,86,87
 247 633 247 633 268 623 c 256,88,89
 288 614 288 614 307 614 c 258,90,-1
 308 614 l 1,91,-1
 719 614 l 2,92,93
 782 614 782 614 837 591 c 0,94,95
 889 569 889 569 936 524 c 256,96,97
 980 482 980 482 1002 425 c 0,98,99
 1026 368 1026 368 1026 307 c 128,-1,100
 1026 246 1026 246 1002 189 c 256,101,102
 980 134 980 134 936 90 c 256,103,104
 892 46 892 46 837 24 c 0,105,106
 780 0 780 0 719 0 c 18,0,1
EndSplineSet
Validated: 1
EndChar

StartChar: T
Encoding: 84 84 19
Width: 1228
VWidth: 2072
Flags: W
LayerCount: 2
Fore
SplineSet
1024 819 m 1,0,-1
 614 819 l 1,1,-1
 614 0 l 1,2,-1
 410 0 l 1,3,-1
 410 819 l 1,4,-1
 0 819 l 1,5,-1
 0 1024 l 1,6,-1
 1024 1024 l 1,7,-1
 1024 819 l 1,0,-1
EndSplineSet
Validated: 1
EndChar

StartChar: U
Encoding: 85 85 20
Width: 1228
VWidth: 2097
Flags: W
LayerCount: 2
Fore
SplineSet
208 512 m 28,0,1
 217 423 217 423 228 394 c 0,2,3
 251 339 251 339 295 295 c 0,4,5
 338 252 338 252 394 228 c 0,6,7
 452 205 452 205 512 205 c 128,-1,8
 572 205 572 205 630 228 c 0,9,10
 686 252 686 252 729 295 c 128,-1,11
 772 338 772 338 796 394 c 0,12,13
 810 432 810 432 819 512 c 2,14,-1
 819 614 l 1,15,-1
 819 1024 l 1,16,-1
 1024 1024 l 1,17,-1
 1024 614 l 1,18,-1
 1024 512 l 2,19,20
 1005 364 1005 364 985 316 c 0,21,22
 946 222 946 222 873 151 c 0,23,24
 802 78 802 78 708 39 c 128,-1,25
 614 0 614 0 512 0 c 128,-1,26
 410 0 410 0 316 39 c 128,-1,27
 222 78 222 78 151 151 c 0,28,29
 78 222 78 222 39 316 c 0,30,31
 20 361 20 361 0 512 c 2,32,-1
 -1 614 l 1,33,-1
 0 1024 l 1,34,-1
 205 1024 l 1,35,-1
 205 614 l 2,36,37
 205 536 205 536 208 512 c 28,0,1
EndSplineSet
Validated: 1
EndChar

StartChar: V
Encoding: 86 86 21
Width: 1228
VWidth: 1300
Flags: W
LayerCount: 2
Fore
SplineSet
216 1024 m 25,0,-1
 512 274 l 1,1,-1
 808 1024 l 1,2,-1
 1024 1024 l 1,3,-1
 620 0 l 1,4,-1
 404 0 l 1,5,-1
 0 1024 l 1,6,-1
 216 1024 l 25,0,-1
EndSplineSet
Validated: 1
EndChar

StartChar: W
Encoding: 87 87 22
Width: 1228
Flags: W
LayerCount: 2
Fore
SplineSet
-2 1024 m 29,0,-1
 225 1024 l 1,1,-1
 307 205 l 1,2,-1
 410 614 l 1,3,-1
 614 614 l 1,4,-1
 717 211 l 1,5,-1
 799 1024 l 1,6,-1
 1024 1024 l 1,7,-1
 952 0 l 1,8,-1
 614 0 l 1,9,-1
 512 307 l 1,10,-1
 410 0 l 1,11,-1
 72 0 l 1,12,-1
 -2 1024 l 29,0,-1
EndSplineSet
Validated: 1
EndChar

StartChar: X
Encoding: 88 88 23
Width: 1228
Flags: W
LayerCount: 2
Fore
SplineSet
0 0 m 29,0,-1
 374 512 l 25,1,-1
 0 1024 l 25,2,-1
 276 1024 l 25,3,-1
 511 701 l 25,4,-1
 748 1024 l 25,5,-1
 1024 1024 l 25,6,-1
 650 512 l 25,7,-1
 1024 0 l 25,8,-1
 748 0 l 25,9,-1
 511 323 l 25,10,-1
 276 0 l 25,11,-1
 0 0 l 29,0,-1
EndSplineSet
Validated: 1
EndChar

StartChar: Y
Encoding: 89 89 24
Width: 1228
Flags: W
LayerCount: 2
Fore
SplineSet
614 466 m 25,0,-1
 614 0 l 1,1,-1
 410 0 l 1,2,-1
 410 464 l 1,3,-1
 373 514 l 1,4,-1
 0 1024 l 1,5,-1
 276 1024 l 1,6,-1
 512 702 l 1,7,-1
 748 1024 l 1,8,-1
 1024 1024 l 1,9,-1
 722 613 l 1,10,-1
 649 514 l 1,11,-1
 614 466 l 25,0,-1
EndSplineSet
Validated: 1
EndChar

StartChar: Z
Encoding: 90 90 25
Width: 1228
Flags: W
LayerCount: 2
Fore
SplineSet
311 205 m 25,0,-1
 1024 205 l 1,1,-1
 1024 0 l 1,2,-1
 0 0 l 1,3,-1
 0 205 l 1,4,-1
 711 819 l 1,5,-1
 205 819 l 1,6,-1
 0 819 l 1,7,-1
 0 1024 l 1,8,-1
 1024 1024 l 1,9,-1
 1024 819 l 1,10,-1
 311 205 l 25,0,-1
713 819 m 1,11,-1
EndSplineSet
Validated: 1
EndChar

StartChar: a
Encoding: 97 97 26
Width: 1228
VWidth: 1300
Flags: W
LayerCount: 2
Fore
SplineSet
512 768 m 1,0,-1
 369 410 l 1,1,-1
 655 410 l 1,2,-1
 512 768 l 1,0,-1
410 1024 m 1,3,-1
 614 1024 l 1,4,-1
 1024 0 l 1,5,-1
 819 0 l 1,6,-1
 737 205 l 1,7,-1
 287 205 l 1,8,-1
 205 0 l 1,9,-1
 0 0 l 1,10,-1
 410 1024 l 1,3,-1
EndSplineSet
EndChar

StartChar: b
Encoding: 98 98 27
Width: 1228
VWidth: 1257
Flags: W
HStem: 0 205<0 205 410 598.319> 410 204<410 637.279> 819 205<0 205 410 642.877>
VStem: 205 205<205 410 614 819>
CounterMasks: 1 e0
LayerCount: 2
Fore
SplineSet
308 205 m 30,0,-1
 347 205 l 5,1,-1
 819 205 l 5,2,-1
 819 410 l 5,3,-1
 357 410 l 5,4,-1
 308 410 l 6,5,6
 287 410 287 410 269 402 c 4,7,8
 247 392 247 392 235 380 c 4,9,10
 220 363 220 363 213 347 c 4,11,12
 205 326 205 326 205 308 c 4,13,14
 205 288 205 288 213 269 c 4,15,16
 222 249 222 249 235 236 c 4,17,18
 253 218 253 218 269 214 c 6,19,20
 283 205 283 205 308 205 c 30,0,-1
1024 205 m 5,21,-1
 1024 0 l 5,22,-1
 614 0 l 5,23,-1
 353 0 l 5,24,-1
 308 0 l 6,25,26
 246 0 246 0 190 24 c 4,27,28
 130 50 130 50 91 90 c 4,29,30
 47 134 47 134 24 189 c 4,31,32
 0 246 0 246 0 307 c 4,33,34
 0 360 0 360 24 425 c 4,35,36
 41 471 41 471 78 511 c 5,37,-1
 78 512 l 5,38,39
 40 556 40 556 24 599 c 4,40,41
 0 664 0 664 0 717 c 4,42,43
 0 776 0 776 24 835 c 4,44,45
 46 889 46 889 91 934 c 4,46,47
 130 975 130 975 190 1000 c 4,48,49
 248 1024 248 1024 308 1024 c 6,50,-1
 357 1024 l 29,51,-1
 1024 1024 l 5,52,-1
 1024 819 l 5,53,-1
 1024 205 l 5,21,-1
308 614 m 30,55,-1
 347 614 l 5,56,-1
 819 614 l 5,57,-1
 819 819 l 5,58,-1
 357 819 l 5,59,-1
 308 819 l 6,60,61
 287 819 287 819 269 811 c 4,62,63
 247 801 247 801 235 789 c 4,64,65
 220 772 220 772 213 756 c 4,66,67
 205 735 205 735 205 717 c 4,68,69
 205 697 205 697 213 678 c 4,70,71
 222 658 222 658 235 645 c 4,72,73
 253 627 253 627 269 623 c 6,74,75
 283 614 283 614 308 614 c 30,55,-1
EndSplineSet
EndChar

StartChar: c
Encoding: 99 99 28
Width: 1228
VWidth: 2097
Flags: W
LayerCount: 2
Fore
SplineSet
305 39 m 4,0,1
 275 52 275 52 243 72 c 4,2,3
 172 116 172 116 168 126 c 4,4,-1
 92 204 l 4,5,-1
 36 302 l 4,6,7
 18 356 18 356 0 410 c 5,8,-1
 213 410 l 5,9,-1
 219 393 l 6,10,11
 236 344 236 344 285 295 c 4,12,13
 329 251 329 251 383 229 c 4,14,15
 442 205 442 205 502 205 c 4,16,17
 564 205 564 205 621 229 c 4,18,19
 675 251 675 251 719 295 c 132,-1,20
 763 339 763 339 785 393 c 4,21,22
 809 450 809 450 809 512 c 132,-1,23
 809 574 809 574 785 631 c 4,24,25
 763 685 763 685 719 729 c 132,-1,26
 675 773 675 773 621 795 c 4,27,28
 564 819 564 819 502 819 c 132,-1,29
 440 819 440 819 383 795 c 4,30,31
 329 773 329 773 285 729 c 4,32,33
 236 680 236 680 219 631 c 286,34,-1
 213 614 l 5,35,-1
 0 614 l 5,36,-1
 29 709 l 4,37,38
 64 794 64 794 142 872 c 4,39,40
 219 949 219 949 305 985 c 4,41,42
 400 1024 400 1024 502 1024 c 132,-1,43
 604 1024 604 1024 699 985 c 4,44,45
 789 948 789 948 863 873 c 4,46,47
 935 802 935 802 975 709 c 4,48,49
 1014 618 1014 618 1014 512 c 4,50,51
 1014 410 1014 410 975 315 c 4,52,53
 938 225 938 225 863 151 c 132,-1,54
 788 77 788 77 699 39 c 4,55,56
 608 0 608 0 502 0 c 4,57,58
 397 0 397 0 305 39 c 4,0,1
EndSplineSet
EndChar

StartChar: d
Encoding: 100 100 29
Width: 1228
VWidth: 1257
Flags: W
LayerCount: 2
Fore
SplineSet
205 307 m 6,0,1
 205 286 205 286 213 268 c 4,2,3
 222 248 222 248 235 235 c 4,4,5
 250 220 250 220 269 213 c 4,6,7
 288 205 288 205 308 205 c 30,8,-1
 449 205 l 5,9,-1
 819 205 l 5,10,-1
 819 410 l 5,11,-1
 819 614 l 5,12,-1
 819 819 l 5,13,-1
 347 819 l 5,14,-1
 308 819 l 30,15,16
 288 819 288 819 269 811 c 4,17,18
 250 804 250 804 235 789 c 4,19,20
 220 772 220 772 213 756 c 4,21,22
 205 735 205 735 205 717 c 6,23,24
 205 307 l 6,0,1
0 717 m 6,25,26
 0 778 0 778 24 835 c 132,-1,27
 48 892 48 892 91 934 c 4,28,29
 134 978 134 978 190 1000 c 4,30,31
 251 1024 251 1024 308 1024 c 30,32,-1
 353 1024 l 5,33,-1
 1024 1024 l 5,34,-1
 1024 819 l 5,35,-1
 1024 205 l 5,36,-1
 1024 0 l 5,37,-1
 455 0 l 5,38,-1
 308 0 l 30,39,40
 249 0 249 0 190 24 c 4,41,42
 134 47 134 47 91 90 c 4,43,44
 48 132 48 132 24 189 c 132,-1,45
 0 246 0 246 0 307 c 6,46,-1
 0 717 l 6,25,26
EndSplineSet
EndChar

StartChar: e
Encoding: 101 101 30
Width: 1228
Flags: W
LayerCount: 2
Fore
SplineSet
1024 0 m 5,0,-1
 0 0 l 5,1,-1
 0 205 l 5,2,-1
 819 205 l 5,3,-1
 819 410 l 5,4,-1
 410 410 l 5,5,-1
 410 614 l 5,6,-1
 819 614 l 5,7,-1
 819 819 l 5,8,-1
 0 819 l 5,9,-1
 0 1024 l 5,10,-1
 1024 1024 l 5,11,-1
 1024 0 l 5,0,-1
EndSplineSet
EndChar

StartChar: f
Encoding: 102 102 31
Width: 1228
Flags: W
LayerCount: 2
Fore
SplineSet
819 0 m 25,0,-1
 819 410 l 1,1,-1
 411 410 l 1,2,-1
 411 614 l 1,3,-1
 819 614 l 1,4,-1
 819 819 l 1,5,-1
 0 819 l 1,6,-1
 0 1024 l 1,7,-1
 1024 1024 l 1,8,-1
 1024 0 l 1,9,-1
 819 0 l 25,0,-1
EndSplineSet
EndChar

StartChar: g
Encoding: 103 103 32
Width: 1228
VWidth: 2097
Flags: W
LayerCount: 2
Fore
SplineSet
512 0 m 0,0,1
 504 0 504 0 497 0 c 0,2,3
 412 0 412 0 316 39 c 0,4,5
 224 76 224 76 151 151 c 0,6,7
 75 229 75 229 39 316 c 0,8,9
 0 410 0 410 0 512 c 0,10,-1
 410 513 l 1,11,-1
 410 332 l 1,12,-1
 261 333 l 1,13,-1
 295 295 l 258,14,15
 332 253 332 253 393 229 c 0,16,17
 453 205 453 205 512 205 c 0,18,19
 575 205 575 205 631 229 c 128,-1,20
 687 253 687 253 729 295 c 0,21,22
 774 340 774 340 795 393 c 0,23,24
 819 453 819 453 819 512 c 0,25,26
 819 575 819 575 795 631 c 128,-1,27
 771 687 771 687 729 729 c 0,28,29
 684 774 684 774 631 795 c 0,30,31
 571 819 571 819 512 819 c 0,32,33
 451 819 451 819 393 795 c 0,34,35
 323 766 323 766 295 729 c 2,36,-1
 292 725 l 25,37,-1
 46 725 l 1,38,-1
 49 730 l 258,39,40
 111 834 111 834 152 872 c 0,41,42
 234 951 234 951 315 985 c 0,43,44
 408 1024 408 1024 512 1024 c 0,45,46
 615 1024 615 1024 709 985 c 0,47,48
 798 948 798 948 873 873 c 128,-1,49
 948 798 948 798 985 709 c 0,50,51
 1024 615 1024 615 1024 512 c 128,-1,52
 1024 409 1024 409 985 315 c 0,53,54
 948 226 948 226 873 151 c 0,55,56
 792 70 792 70 709 39 c 0,57,58
 605 0 605 0 512 0 c 0,0,1
EndSplineSet
EndChar

StartChar: h
Encoding: 104 104 33
Width: 1228
VWidth: 1300
Flags: W
LayerCount: 2
Fore
SplineSet
0 1024 m 1,0,-1
 205 1024 l 1,1,-1
 205 614 l 1,2,-1
 819 614 l 1,3,-1
 819 1024 l 1,4,-1
 1024 1024 l 1,5,-1
 1024 0 l 1,6,-1
 819 0 l 1,7,-1
 819 410 l 1,8,-1
 205 410 l 1,9,-1
 205 0 l 1,10,-1
 0 0 l 1,11,-1
 0 1024 l 1,0,-1
EndSplineSet
EndChar

StartChar: i
Encoding: 105 105 34
Width: 1228
Flags: W
LayerCount: 2
Fore
SplineSet
614 0 m 25,0,-1
 410 0 l 17,1,-1
 410 1024 l 1,2,-1
 614 1024 l 1,3,-1
 614 0 l 25,0,-1
EndSplineSet
EndChar

StartChar: j
Encoding: 106 106 35
Width: 1228
VWidth: 2097
Flags: W
LayerCount: 2
Fore
SplineSet
0 512 m 0,0,1
 0 1024 l 25,2,-1
 205 1024 l 17,3,-1
 205 512 l 1,4,5
 205 512 205 512 228 394 c 0,6,7
 252 338 252 338 295 295 c 128,-1,8
 338 252 338 252 394 228 c 0,9,10
 452 205 452 205 512 205 c 128,-1,11
 572 205 572 205 630 228 c 0,12,13
 686 252 686 252 729 295 c 128,-1,14
 772 338 772 338 796 394 c 0,15,16
 819 452 819 452 819 512 c 0,17,-1
 1024 512 l 0,18,19
 1024 410 1024 410 985 316 c 128,-1,20
 946 222 946 222 873 151 c 0,21,22
 802 78 802 78 708 39 c 128,-1,23
 614 0 614 0 512 0 c 128,-1,24
 410 0 410 0 316 39 c 128,-1,25
 222 78 222 78 151 151 c 0,26,27
 78 222 78 222 39 316 c 128,-1,28
 0 410 0 410 0 512 c 0,0,1
EndSplineSet
EndChar

StartChar: k
Encoding: 107 107 36
Width: 1228
VWidth: 1300
Flags: W
LayerCount: 2
Fore
SplineSet
1024 1024 m 25,0,-1
 1024 0 l 1,1,-1
 819 0 l 1,2,-1
 819 407 l 1,3,-1
 664 524 l 1,4,-1
 254 0 l 1,5,-1
 0 0 l 1,6,-1
 504 644 l 1,7,-1
 0 1024 l 1,8,-1
 332 1024 l 1,9,-1
 819 657 l 1,10,-1
 819 1024 l 1,11,-1
 1024 1024 l 25,0,-1
EndSplineSet
EndChar

StartChar: l
Encoding: 108 108 37
Width: 1228
Flags: W
LayerCount: 2
Fore
SplineSet
819 205 m 1,0,-1
 819 1024 l 1,1,-1
 1024 1024 l 1,2,-1
 1024 0 l 1,3,-1
 0 0 l 1,4,-1
 0 205 l 1,5,-1
 819 205 l 1,0,-1
EndSplineSet
EndChar

StartChar: m
Encoding: 109 109 38
Width: 1228
Flags: W
LayerCount: 2
Fore
SplineSet
0 0 m 25,0,-1
0 0 m 25,1,-1
 0 1024 l 1,2,-1
 205 1024 l 1,3,-1
 512 614 l 1,4,-1
 819 1024 l 1,5,-1
 1024 1024 l 1,6,-1
 1024 0 l 1,7,-1
 819 0 l 1,8,-1
 819 666 l 1,9,-1
 614 410 l 1,10,-1
 410 410 l 1,11,-1
 205 666 l 1,12,-1
 205 0 l 1,13,-1
 0 0 l 25,1,-1
EndSplineSet
EndChar

StartChar: n
Encoding: 110 110 39
Width: 1228
Flags: W
LayerCount: 2
Fore
SplineSet
820 0 m 1,0,-1
 819 205 l 1,1,-1
 819 711 l 1,2,-1
 205 0 l 1,3,-1
 0 0 l 1,4,-1
 0 1024 l 1,5,-1
 205 1024 l 1,6,-1
 205 819 l 1,7,-1
 205 313 l 1,8,-1
 819 1024 l 1,9,-1
 1024 1024 l 1,10,-1
 1024 0 l 1,11,-1
 820 0 l 1,0,-1
EndSplineSet
EndChar

StartChar: o
Encoding: 111 111 40
Width: 1228
VWidth: 2097
Flags: W
LayerCount: 2
Fore
SplineSet
512 819 m 152,-1,1
 452 819 452 819 394 796 c 0,2,3
 338 772 338 772 295 729 c 128,-1,4
 252 686 252 686 228 630 c 0,5,6
 205 572 205 572 205 512 c 128,-1,7
 205 452 205 452 228 394 c 0,8,9
 252 338 252 338 295 295 c 128,-1,10
 338 252 338 252 394 228 c 0,11,12
 452 205 452 205 512 205 c 128,-1,13
 572 205 572 205 630 228 c 0,14,15
 686 252 686 252 729 295 c 0,16,17
 775 341 775 341 796 394 c 0,18,19
 819 452 819 452 819 512 c 0,20,21
 819 543 819 543 813 573 c 0,22,23
 807 602 807 602 796 630 c 0,24,25
 775 683 775 683 729 729 c 0,26,27
 686 772 686 772 630 796 c 0,28,0
 572 819 572 819 512 819 c 152,-1,1
512 1024 m 152,-1,30
 614 1024 614 1024 708 985 c 128,-1,31
 802 946 802 946 873 873 c 0,32,33
 946 802 946 802 985 708 c 128,-1,34
 1024 614 1024 614 1024 512 c 128,-1,35
 1024 410 1024 410 985 316 c 128,-1,36
 946 222 946 222 873 151 c 0,37,38
 802 78 802 78 708 39 c 128,-1,39
 614 0 614 0 512 0 c 128,-1,40
 410 0 410 0 316 39 c 128,-1,41
 222 78 222 78 151 151 c 0,42,43
 78 222 78 222 39 316 c 128,-1,44
 0 410 0 410 0 512 c 128,-1,45
 0 614 0 614 39 708 c 128,-1,46
 78 802 78 802 151 873 c 0,47,48
 222 946 222 946 316 985 c 128,-1,29
 410 1024 410 1024 512 1024 c 152,-1,30
EndSplineSet
EndChar

StartChar: p
Encoding: 112 112 41
Width: 1228
VWidth: 1257
Flags: W
CounterMasks: 1 e0
LayerCount: 2
Fore
SplineSet
308 819 m 30,0,1
 288 819 288 819 269 811 c 4,2,3
 250 804 250 804 235 789 c 4,4,5
 222 776 222 776 213 756 c 4,6,7
 205 738 205 738 205 717 c 4,8,9
 205 697 205 697 213 678 c 4,10,11
 219 663 219 663 235 645 c 132,-1,12
 251 627 251 627 269 623 c 6,13,14
 283 614 283 614 308 614 c 6,15,-1
 357 614 l 5,16,-1
 717 614 l 5,17,-1
 717 819 l 5,18,-1
 347 819 l 5,19,-1
 308 819 l 30,0,1
922 1024 m 5,20,-1
 922 0 l 5,21,-1
 717 0 l 5,22,-1
 717 410 l 5,23,-1
 357 410 l 5,24,-1
 308 410 l 6,25,26
 246 410 246 410 190 433 c 132,-1,27
 134 456 134 456 91 500 c 4,28,29
 46 546 46 546 24 599 c 4,30,31
 0 656 0 656 0 717 c 132,-1,32
 0 778 0 778 24 835 c 132,-1,33
 48 892 48 892 91 934 c 4,34,35
 134 977 134 977 190 1000 c 4,36,37
 249 1024 249 1024 308 1024 c 30,38,-1
 353 1024 l 5,39,-1
 922 1024 l 5,20,-1
EndSplineSet
EndChar

StartChar: q
Encoding: 113 113 42
Width: 1228
VWidth: 2097
Flags: WO
LayerCount: 2
Fore
SplineSet
0 0 m 25,0,-1
 0 74 l 1,1,-1
 113 196 l 1,2,3
 61 255 61 255 39 316 c 0,4,5
 0 426 0 426 0 512 c 0,6,7
 0 615 0 615 39 708 c 0,8,9
 77 799 77 799 151 873 c 128,-1,10
 225 947 225 947 316 985 c 0,11,12
 409 1024 409 1024 512 1024 c 128,-1,13
 615 1024 615 1024 708 985 c 0,14,15
 799 947 799 947 873 873 c 128,-1,16
 947 799 947 799 985 708 c 0,17,18
 1024 615 1024 615 1024 512 c 0,19,20
 1024 411 1024 411 985 316 c 0,21,22
 948 226 948 226 873 151 c 0,23,24
 801 79 801 79 709 39 c 0,25,26
 619 0 619 0 553 0 c 0,27,28
 547 0 547 0 541 0 c 0,29,30
 534 0 534 0 528 0 c 0,31,32
 520 0 520 0 512 0 c 0,33,34
 396 0 396 0 263 65 c 17,35,-1
 201 0 l 1,36,-1
 0 0 l 25,0,-1
253 345 m 9,37,38
 410 512 l 1,39,-1
 539 367 l 1,40,-1
 408 223 l 1,41,42
 456 204 456 204 498 204 c 0,43,44
 500 204 500 204 502 205 c 0,45,46
 502 205 502 205 507 205 c 0,47,48
 509 205 509 205 512 205 c 0,49,50
 572 205 572 205 630 228 c 0,51,52
 683 249 683 249 729 295 c 0,53,54
 772 338 772 338 796 394 c 0,55,56
 819 452 819 452 819 512 c 128,-1,57
 819 572 819 572 796 630 c 0,58,59
 772 686 772 686 729 729 c 128,-1,60
 686 772 686 772 630 796 c 0,61,62
 572 819 572 819 512 819 c 128,-1,63
 452 819 452 819 394 796 c 0,64,65
 338 772 338 772 295 729 c 128,-1,66
 252 686 252 686 228 630 c 0,67,68
 205 572 205 572 205 512 c 0,69,70
 205 478 205 478 228 394 c 0,71,72
 237 367 237 367 253 345 c 9,37,38
EndSplineSet
EndChar

StartChar: r
Encoding: 114 114 43
Width: 1228
VWidth: 1257
Flags: W
LayerCount: 2
Fore
SplineSet
819 0 m 5,0,-1
 819 205 l 5,1,-1
 819 410 l 5,2,-1
 428 410 l 13,3,-1
 228 0 l 5,4,-1
 0 0 l 5,5,-1
 212 424 l 5,6,7
 125 470 125 470 91 500 c 4,8,9
 47 539 47 539 24 599 c 4,10,11
 0 661 0 661 0 717 c 4,12,13
 0 778 0 778 24 835 c 4,14,15
 47 890 47 890 91 934 c 4,16,17
 130 974 130 974 190 1000 c 4,18,19
 246 1024 246 1024 308 1024 c 6,20,-1
 353 1024 l 5,21,-1
 1024 1024 l 5,22,-1
 1024 205 l 5,23,-1
 1024 0 l 5,24,-1
 819 0 l 5,0,-1
308 819 m 30,25,26
 288 819 288 819 269 811 c 4,27,28
 250 804 250 804 235 789 c 4,29,30
 222 776 222 776 213 756 c 4,31,32
 205 738 205 738 205 717 c 4,33,34
 205 697 205 697 213 678 c 4,35,36
 219 663 219 663 235 645 c 132,-1,37
 251 627 251 627 269 623 c 6,38,39
 283 614 283 614 308 614 c 6,40,-1
 357 614 l 5,41,-1
 819 614 l 5,42,-1
 819 819 l 5,43,-1
 347 819 l 5,44,-1
 308 819 l 30,25,26
EndSplineSet
EndChar

StartChar: s
Encoding: 115 115 44
Width: 1228
VWidth: 1257
Flags: W
CounterMasks: 1 e0
LayerCount: 2
Fore
SplineSet
307 0 m 10,0,1
 246 0 246 0 189 24 c 0,2,3
 134 46 134 46 90 90 c 256,4,5
 46 134 46 134 24 189 c 256,6,7
 0 246 0 246 0 307 c 128,-1,8
 0 368 0 368 24 425 c 0,9,10
 46 482 46 482 90 524 c 256,11,12
 137 569 137 569 189 591 c 0,13,14
 244 614 244 614 307 614 c 2,15,-1
 718 614 l 1,16,-1
 719 614 l 258,17,18
 738 614 738 614 758 623 c 256,19,20
 779 633 779 633 790 645 c 0,21,22
 806 659 806 659 813 678 c 0,23,24
 821 699 821 699 821 717 c 128,-1,25
 821 735 821 735 813 756 c 0,26,27
 806 774 806 774 791 789 c 128,-1,28
 776 804 776 804 758 811 c 0,29,30
 737 819 737 819 719 819 c 2,31,-1
 309 819 l 258,32,33
 291 819 291 819 270 811 c 0,34,35
 250 803 250 803 238 788 c 2,36,37
 223 776 223 776 215 756 c 0,38,39
 207 735 207 735 207 717 c 2,40,-1
 207 715 l 257,41,-1
 2 715 l 1,42,-1
 2 717 l 258,43,44
 2 778 2 778 26 835 c 0,45,46
 48 890 48 890 92 934 c 256,47,48
 136 978 136 978 191 1000 c 256,49,50
 248 1024 248 1024 309 1024 c 2,51,-1
 719 1024 l 2,52,53
 780 1024 780 1024 837 1000 c 0,54,55
 892 978 892 978 936 934 c 256,56,57
 980 890 980 890 1002 835 c 256,58,59
 1026 778 1026 778 1026 717 c 128,-1,60
 1026 656 1026 656 1002 599 c 0,61,62
 980 544 980 544 936 500 c 0,63,64
 897 461 897 461 837 433 c 0,65,66
 785 410 785 410 719 410 c 2,67,-1
 718 410 l 1,68,-1
 307 410 l 258,69,70
 288 410 288 410 268 401 c 256,71,72
 248 392 248 392 235 379 c 0,73,74
 220 364 220 364 213 346 c 0,75,76
 205 329 205 329 205 307 c 128,-1,77
 205 285 205 285 213 268 c 0,78,79
 220 249 220 249 235 236 c 0,80,81
 249 220 249 220 268 213 c 0,82,83
 289 205 289 205 307 205 c 2,84,-1
 309 205 l 1,85,-1
 719 205 l 258,86,87
 737 205 737 205 758 213 c 0,88,89
 778 221 778 221 790 236 c 2,90,91
 805 248 805 248 813 268 c 0,92,93
 821 289 821 289 821 307 c 2,94,-1
 821 309 l 257,95,-1
 1026 309 l 1,96,-1
 1026 307 l 258,97,98
 1026 246 1026 246 1002 189 c 0,99,100
 980 134 980 134 936 90 c 256,101,102
 892 46 892 46 837 24 c 256,103,104
 780 0 780 0 719 0 c 2,105,-1
 307 0 l 10,0,1
EndSplineSet
EndChar

StartChar: t
Encoding: 116 116 45
Width: 1228
VWidth: 2072
Flags: W
LayerCount: 2
Fore
SplineSet
1024 819 m 1,0,-1
 614 819 l 1,1,-1
 614 0 l 1,2,-1
 410 0 l 1,3,-1
 410 819 l 1,4,-1
 0 819 l 1,5,-1
 0 1024 l 1,6,-1
 1024 1024 l 1,7,-1
 1024 819 l 1,0,-1
EndSplineSet
EndChar

StartChar: u
Encoding: 117 117 46
Width: 1228
VWidth: 2097
Flags: W
LayerCount: 2
Fore
SplineSet
208 512 m 28,0,1
 217 423 217 423 228 394 c 0,2,3
 251 339 251 339 295 295 c 0,4,5
 338 252 338 252 394 228 c 0,6,7
 452 205 452 205 512 205 c 128,-1,8
 572 205 572 205 630 228 c 0,9,10
 686 252 686 252 729 295 c 128,-1,11
 772 338 772 338 796 394 c 0,12,13
 810 432 810 432 819 512 c 2,14,-1
 819 614 l 1,15,-1
 819 1024 l 1,16,-1
 1024 1024 l 1,17,-1
 1024 614 l 1,18,-1
 1024 512 l 2,19,20
 1005 364 1005 364 985 316 c 0,21,22
 946 222 946 222 873 151 c 0,23,24
 802 78 802 78 708 39 c 128,-1,25
 614 0 614 0 512 0 c 128,-1,26
 410 0 410 0 316 39 c 128,-1,27
 222 78 222 78 151 151 c 0,28,29
 78 222 78 222 39 316 c 0,30,31
 20 361 20 361 0 512 c 2,32,-1
 -1 614 l 1,33,-1
 0 1024 l 1,34,-1
 205 1024 l 1,35,-1
 205 614 l 2,36,37
 205 536 205 536 208 512 c 28,0,1
EndSplineSet
EndChar

StartChar: v
Encoding: 118 118 47
Width: 1228
VWidth: 1300
Flags: W
LayerCount: 2
Fore
SplineSet
216 1024 m 25,0,-1
 512 274 l 1,1,-1
 808 1024 l 1,2,-1
 1024 1024 l 1,3,-1
 620 0 l 1,4,-1
 404 0 l 1,5,-1
 0 1024 l 1,6,-1
 216 1024 l 25,0,-1
EndSplineSet
EndChar

StartChar: w
Encoding: 119 119 48
Width: 1228
Flags: W
LayerCount: 2
Fore
SplineSet
-2 1024 m 29,0,-1
 225 1024 l 1,1,-1
 307 205 l 1,2,-1
 410 614 l 1,3,-1
 614 614 l 1,4,-1
 717 211 l 1,5,-1
 799 1024 l 1,6,-1
 1024 1024 l 1,7,-1
 952 0 l 1,8,-1
 614 0 l 1,9,-1
 512 307 l 1,10,-1
 410 0 l 1,11,-1
 72 0 l 1,12,-1
 -2 1024 l 29,0,-1
EndSplineSet
EndChar

StartChar: x
Encoding: 120 120 49
Width: 1228
Flags: W
LayerCount: 2
Fore
SplineSet
0 0 m 29,0,-1
 374 512 l 25,1,-1
 0 1024 l 25,2,-1
 276 1024 l 25,3,-1
 511 701 l 25,4,-1
 748 1024 l 25,5,-1
 1024 1024 l 25,6,-1
 650 512 l 25,7,-1
 1024 0 l 25,8,-1
 748 0 l 25,9,-1
 511 323 l 25,10,-1
 276 0 l 25,11,-1
 0 0 l 29,0,-1
EndSplineSet
EndChar

StartChar: y
Encoding: 121 121 50
Width: 1228
Flags: W
LayerCount: 2
Fore
SplineSet
614 466 m 25,0,-1
 614 0 l 1,1,-1
 410 0 l 1,2,-1
 410 464 l 1,3,-1
 373 514 l 1,4,-1
 0 1024 l 1,5,-1
 276 1024 l 1,6,-1
 512 702 l 1,7,-1
 748 1024 l 1,8,-1
 1024 1024 l 1,9,-1
 722 613 l 1,10,-1
 649 514 l 1,11,-1
 614 466 l 25,0,-1
EndSplineSet
EndChar

StartChar: z
Encoding: 122 122 51
Width: 1228
Flags: W
LayerCount: 2
Fore
SplineSet
713 205 m 25,0,-1
 0 819 l 1,1,-1
 0 1024 l 1,2,-1
 1024 1024 l 1,3,-1
 1024 819 l 1,4,-1
 819 819 l 1,5,-1
 313 819 l 1,6,-1
 1024 205 l 1,7,-1
 1024 0 l 1,8,-1
 0 0 l 1,9,-1
 0 205 l 1,10,-1
 713 205 l 25,0,-1
EndSplineSet
EndChar
